# xmcd CD database file
#
# Track frame offsets:
#	150
#	21748
#	41970
#	60606
#	84058
#	106019
#	122983
#	142469
#	164296
#	185436
#
# Disc length: 2682 seconds
#
# Revision: 0
# Processed by: cddbd v1.5.1PL2 Copyright (c) Steve Scherf et al.
# Submitted via: CDex 1.51
#
DISCID=8e0a780a
DTITLE=白鳥英美子 - 白鳥英美子バイファムを歌う
DYEAR=2005
DGENRE=Ballad
TTITLE0=Lonely Planet
TTITLE1=聖なる旅路
TTITLE2=夏の日のマドンナ
TTITLE3=祈り
TTITLE4=あなたへ続く空に
TTITLE5=約束
TTITLE6=輝く明日へ
TTITLE7=Blue…
TTITLE8=Lullaby for my Angel
TTITLE9=君はス・テ・キ
EXTD=YEAR: 2005
EXTT0=
EXTT1=
EXTT2=
EXTT3=
EXTT4=
EXTT5=
EXTT6=
EXTT7=
EXTT8=
EXTT9=
PLAYORDER=
